<?xml version="1.0" encoding="UTF-8" standalone="no"?>
<svg
   viewBox="-2 15 212 74"
   version="1.1"
   id="svg24"
   sodipodi:docname="MIM_V2_geometry.svg"
   inkscape:version="1.4 (86a8ad7, 2024-10-11)"
   inkscape:export-filename="MIM_V2_geometry.png"
   inkscape:export-xdpi="580.9826"
   inkscape:export-ydpi="580.9826"
   xmlns:inkscape="http://www.inkscape.org/namespaces/inkscape"
   xmlns:sodipodi="http://sodipodi.sourceforge.net/DTD/sodipodi-0.dtd"
   xmlns="http://www.w3.org/2000/svg"
   xmlns:svg="http://www.w3.org/2000/svg">
  <sodipodi:namedview
     id="namedview24"
     pagecolor="#ffffff"
     bordercolor="#000000"
     borderopacity="0.25"
     inkscape:showpageshadow="2"
     inkscape:pageopacity="0.0"
     inkscape:pagecheckerboard="0"
     inkscape:deskcolor="#d1d1d1"
     showgrid="true"
     inkscape:zoom="5.9203516"
     inkscape:cx="102.44324"
     inkscape:cy="29.727964"
     inkscape:window-width="1504"
     inkscape:window-height="931"
     inkscape:window-x="400"
     inkscape:window-y="55"
     inkscape:window-maximized="0"
     inkscape:current-layer="svg24">
    <inkscape:grid
       id="grid24"
       units="px"
       originx="0"
       originy="0"
       spacingx="1"
       spacingy="1"
       empcolor="#0099e5"
       empopacity="0.30196078"
       color="#0099e5"
       opacity="0.14901961"
       empspacing="5"
       enabled="true"
       visible="true" />
  </sodipodi:namedview>
  <rect
     x="47.112"
     y="23.179"
     width="47.945"
     height="58.619"
     ry="9.169"
     fill="#b7cfc5"
     id="rect2" />
  <rect
     x="15.476805"
     y="24.617323"
     width="31.898655"
     height="56.254276"
     ry="8.7991171"
     fill="#b7cfc5"
     id="rect2-0"
     inkscape:transform-center-x="-28.206895"
     inkscape:transform-center-y="17.668356"
     style="stroke-width:0.799048;fill:#ffffff" />
  <defs
     id="defs2">
    <clipPath
       id="pcMIM_V2_geometry">
      <path
         d="M 30.1,21.7 H 200.4 Q 206.4,21.7 206.4,27.7 V 76.9 Q 206.4,82.9 200.4,82.9 H 30.1 Q 24.1,82.9 24.1,76.9 V 27.7 Q 24.1,21.7 30.1,21.7 Z"
         id="path2" />
    </clipPath>
  </defs>
  <g
     transform="translate(-10.69157,0)"
     clip-path="url(#pcMIM_V2_geometry)"
     id="g24">
    <path
       d="m 30.1,22.744508 h 170.3 c 4,0 6,0.477746 6,4.477746 v 49.2 c 0,4 -2,6 -6,6 H 30.1 c -4,0 -6,-2 -6,-6 v -49.2 c 0,-4 2,-4.477746 6,-4.477746 z m 14.5,36.79331 v -19.8 l 3.6,4.5 c 2,2.5 4.7,5.9 6,7.6 1.3,1.7 2.5,3.2 2.7,3.3 0.3,0.3 0.3,0.1 0.3,-7.4 0,-7.6 0,-7.7 -0.3,-7.9 -0.2,-0.1 -0.3,-0.3 -0.2,-0.4 -1.141412,-1.088073 -2.403661,-2.545791 -3.5,-3.8 -2.789989,-3.238138 -5.77844,-6.32127 -8.4,-9.7 v -0.1 c -0.1,0.1 -1.3,0.2 -5.6,0.2 h -5.6 v 26.6 c 0,14.7 0,26.7 0.1,26.7 0.1,0 2.6,0.1 5.6,0.1 h 5.5 z m 23.4,2 c 0,-14.4 -0.1,-17.9 -0.2,-18.1 -0.4,-0.7 -0.6,-0.7 -3.3,-0.8 -2.9,0 -3.4,0.1 -3.8,0.8 -0.2,0.4 -0.3,1.3 -0.3,18.2 v 17.7 h 3.9 3.9 z m 26.9,-8.9 v -26.7 h -5.5 -5.5 l -1.7,1.7 c -0.9,1 -2.8,3.2 -4.3,4.9 -1.5,1.7 -3.7,4.1 -4.7,5.3 l -2,2.2 v 7.6 c 0,4.2 0,7.6 0.1,7.6 0.1,0 2.7,-3.3 8.5,-10.7 0.7,-1 2,-2.5 2.7,-3.4 l 1.3,-1.7 v 19.9 19.9 l 5.6,3e-6 5.6,10e-7 z m -27.7,-14 c 0.6,-0.4 0.7,-1 0.8,-3.2 0,-1.7 0,-2.1 -0.3,-2.5 -0.4,-0.7 -0.8,-0.8 -3.5,-0.9 -3.6,0 -3.7,0.1 -3.7,3.7 0,2.2 0.1,2.3 0.4,2.6 0.5,0.5 1,0.6 3.6,0.6 2,0 2.4,-0.1 2.7,-0.3 z"
       fill="#142e29"
       fill-rule="evenodd"
       id="path3"
       sodipodi:nodetypes="sssssssssccsscscccccscsssccccccscccccccccsccssccccccccscccssss" />
    <path
       transform="translate(106.000,51.500) scale(0.017743,-0.017743)"
       d="M1307 0V854Q1307 883 1307.5 912.0Q1308 941 1317 1161Q1246 892 1212 786L958 0H748L494 786L387 1161Q399 929 399 854V0H137V1409H532L784 621L806 545L854 356L917 582L1176 1409H1569V0Z"
       fill="#f2f4f3"
       id="path4" />
    <path
       transform="translate(146.452,51.500) scale(0.017743,-0.017743)"
       d="M137 0V1409H432V0Z"
       fill="#f2f4f3"
       id="path5" />
    <path
       transform="translate(166.730,51.500) scale(0.017743,-0.017743)"
       d="M1307 0V854Q1307 883 1307.5 912.0Q1308 941 1317 1161Q1246 892 1212 786L958 0H748L494 786L387 1161Q399 929 399 854V0H137V1409H532L784 621L806 545L854 356L917 582L1176 1409H1569V0Z"
       fill="#f2f4f3"
       id="path6" />
    <path
       transform="translate(106.000,65.500) scale(0.006104,-0.006104)"
       d="M1307 0V854Q1307 883 1307.5 912.0Q1308 941 1317 1161Q1246 892 1212 786L958 0H748L494 786L387 1161Q399 929 399 854V0H137V1409H532L784 621L806 545L854 356L917 582L1176 1409H1569V0Z"
       fill="#b7cfc5"
       id="path7" />
    <path
       transform="translate(116.804,65.500) scale(0.006104,-0.006104)"
       d="M1507 711Q1507 491 1420.0 324.0Q1333 157 1171.0 68.5Q1009 -20 793 -20Q461 -20 272.5 175.5Q84 371 84 711Q84 1050 272.0 1240.0Q460 1430 795 1430Q1130 1430 1318.5 1238.0Q1507 1046 1507 711ZM1206 711Q1206 939 1098.0 1068.5Q990 1198 795 1198Q597 1198 489.0 1069.5Q381 941 381 711Q381 479 491.5 345.5Q602 212 793 212Q991 212 1098.5 342.0Q1206 472 1206 711Z"
       fill="#b7cfc5"
       id="path8" />
    <path
       transform="translate(126.918,65.500) scale(0.006104,-0.006104)"
       d="M723 -20Q432 -20 277.5 122.0Q123 264 123 528V1409H418V551Q418 384 497.5 297.5Q577 211 731 211Q889 211 974.0 301.5Q1059 392 1059 561V1409H1354V543Q1354 275 1188.5 127.5Q1023 -20 723 -20Z"
       fill="#b7cfc5"
       id="path9" />
    <path
       transform="translate(136.336,65.500) scale(0.006104,-0.006104)"
       d="M1286 406Q1286 199 1132.5 89.5Q979 -20 682 -20Q411 -20 257.0 76.0Q103 172 59 367L344 414Q373 302 457.0 251.5Q541 201 690 201Q999 201 999 389Q999 449 963.5 488.0Q928 527 863.5 553.0Q799 579 616 616Q458 653 396.0 675.5Q334 698 284.0 728.5Q234 759 199.0 802.0Q164 845 144.5 903.0Q125 961 125 1036Q125 1227 268.5 1328.5Q412 1430 686 1430Q948 1430 1079.5 1348.0Q1211 1266 1249 1077L963 1038Q941 1129 873.5 1175.0Q806 1221 680 1221Q412 1221 412 1053Q412 998 440.5 963.0Q469 928 525.0 903.5Q581 879 752 842Q955 799 1042.5 762.5Q1130 726 1181.0 677.5Q1232 629 1259.0 561.5Q1286 494 1286 406Z"
       fill="#b7cfc5"
       id="path10" />
    <path
       transform="translate(145.065,65.500) scale(0.006104,-0.006104)"
       d="M137 0V1409H1245V1181H432V827H1184V599H432V228H1286V0Z"
       fill="#b7cfc5"
       id="path11" />
    <path
       transform="translate(157.935,65.500) scale(0.006104,-0.006104)"
       d="M137 0V1409H432V0Z"
       fill="#b7cfc5"
       id="path12" />
    <path
       transform="translate(161.799,65.500) scale(0.006104,-0.006104)"
       d="M995 0 381 1085Q399 927 399 831V0H137V1409H474L1097 315Q1079 466 1079 590V1409H1341V0Z"
       fill="#b7cfc5"
       id="path13" />
    <path
       transform="translate(171.217,65.500) scale(0.006104,-0.006104)"
       d="M1296 963Q1296 827 1234.0 720.0Q1172 613 1056.5 554.5Q941 496 782 496H432V0H137V1409H770Q1023 1409 1159.5 1292.5Q1296 1176 1296 963ZM999 958Q999 1180 737 1180H432V723H745Q867 723 933.0 783.5Q999 844 999 958Z"
       fill="#b7cfc5"
       id="path14" />
    <path
       transform="translate(179.946,65.500) scale(0.006104,-0.006104)"
       d="M723 -20Q432 -20 277.5 122.0Q123 264 123 528V1409H418V551Q418 384 497.5 297.5Q577 211 731 211Q889 211 974.0 301.5Q1059 392 1059 561V1409H1354V543Q1354 275 1188.5 127.5Q1023 -20 723 -20Z"
       fill="#b7cfc5"
       id="path15" />
    <path
       transform="translate(189.364,65.500) scale(0.006104,-0.006104)"
       d="M773 1181V0H478V1181H23V1409H1229V1181Z"
       fill="#b7cfc5"
       id="path16" />
    <path
       transform="translate(106.000,78.000) scale(0.006104,-0.006104)"
       d="M1307 0V854Q1307 883 1307.5 912.0Q1308 941 1317 1161Q1246 892 1212 786L958 0H748L494 786L387 1161Q399 929 399 854V0H137V1409H532L784 621L806 545L854 356L917 582L1176 1409H1569V0Z"
       fill="#b7cfc5"
       id="path17" />
    <path
       transform="translate(120.683,78.000) scale(0.006104,-0.006104)"
       d="M1507 711Q1507 491 1420.0 324.0Q1333 157 1171.0 68.5Q1009 -20 793 -20Q461 -20 272.5 175.5Q84 371 84 711Q84 1050 272.0 1240.0Q460 1430 795 1430Q1130 1430 1318.5 1238.0Q1507 1046 1507 711ZM1206 711Q1206 939 1098.0 1068.5Q990 1198 795 1198Q597 1198 489.0 1069.5Q381 941 381 711Q381 479 491.5 345.5Q602 212 793 212Q991 212 1098.5 342.0Q1206 472 1206 711Z"
       fill="#b7cfc5"
       id="path18" />
    <path
       transform="translate(134.676,78.000) scale(0.006104,-0.006104)"
       d="M1393 715Q1393 497 1307.5 334.5Q1222 172 1065.5 86.0Q909 0 707 0H137V1409H647Q1003 1409 1198.0 1229.5Q1393 1050 1393 715ZM1096 715Q1096 942 978.0 1061.5Q860 1181 641 1181H432V228H682Q872 228 984.0 359.0Q1096 490 1096 715Z"
       fill="#b7cfc5"
       id="path19" />
    <path
       transform="translate(147.973,78.000) scale(0.006104,-0.006104)"
       d="M137 0V1409H432V0Z"
       fill="#b7cfc5"
       id="path20" />
    <path
       transform="translate(155.716,78.000) scale(0.006104,-0.006104)"
       d="M432 1181V745H1153V517H432V0H137V1409H1176V1181Z"
       fill="#b7cfc5"
       id="path21" />
    <path
       transform="translate(167.622,78.000) scale(0.006104,-0.006104)"
       d="M137 0V1409H432V0Z"
       fill="#b7cfc5"
       id="path22" />
    <path
       transform="translate(175.365,78.000) scale(0.006104,-0.006104)"
       d="M137 0V1409H1245V1181H432V827H1184V599H432V228H1286V0Z"
       fill="#b7cfc5"
       id="path23" />
    <path
       transform="translate(187.973,78.000) scale(0.006104,-0.006104)"
       d="M1105 0 778 535H432V0H137V1409H841Q1093 1409 1230.0 1300.5Q1367 1192 1367 989Q1367 841 1283.0 733.5Q1199 626 1056 592L1437 0ZM1070 977Q1070 1180 810 1180H432V764H818Q942 764 1006.0 820.0Q1070 876 1070 977Z"
       fill="#b7cfc5"
       id="path24" />
  </g>
</svg>
