<?xml version="1.0" encoding="UTF-8" standalone="no"?>
<!-- Created with Inkscape (http://www.inkscape.org/) -->

<svg
   width="210mm"
   height="297mm"
   viewBox="0 0 210 297"
   version="1.1"
   id="svg856"
   inkscape:version="1.1.2 (b8e25be833, 2022-02-05)"
   sodipodi:docname="mim_logo_v6.svg"
   xmlns:inkscape="http://www.inkscape.org/namespaces/inkscape"
   xmlns:sodipodi="http://sodipodi.sourceforge.net/DTD/sodipodi-0.dtd"
   xmlns="http://www.w3.org/2000/svg"
   xmlns:svg="http://www.w3.org/2000/svg">
  <sodipodi:namedview
     id="namedview858"
     pagecolor="#ffffff"
     bordercolor="#666666"
     borderopacity="1.0"
     inkscape:pageshadow="2"
     inkscape:pageopacity="0.0"
     inkscape:pagecheckerboard="0"
     inkscape:document-units="mm"
     showgrid="false"
     inkscape:zoom="0.64052329"
     inkscape:cx="396.55076"
     inkscape:cy="560.47923"
     inkscape:window-width="2560"
     inkscape:window-height="1369"
     inkscape:window-x="2552"
     inkscape:window-y="-8"
     inkscape:window-maximized="1"
     inkscape:current-layer="layer1" />
  <defs
     id="defs853">
    <clipPath
       id="mc">
      <rect
         x="2.6400001"
         y="21.700001"
         width="201"
         height="60.299999"
         id="rect30" />
    </clipPath>
  </defs>
  <g
     inkscape:label="Layer 1"
     inkscape:groupmode="layer"
     id="layer1">
    <rect
       x="78.546089"
       y="24.463139"
       width="50.270828"
       height="17.991667"
       fill="#ffffff"
       id="rect1"
       style="stroke-width:0.25128"
       inkscape:export-filename="C:\Users\roman\Documents\mim-control-io\docs\mim_logo_v6.png"
       inkscape:export-xdpi="451.23871"
       inkscape:export-ydpi="451.23871" />
    <rect
       style="fill:#c5d9d3;fill-opacity:1;stroke:none;stroke-width:0.265906"
       id="rect2"
       width="13.300838"
       height="17.224922"
       x="88.141205"
       y="25.051098"
       ry="2.6942594"
       inkscape:export-filename="C:\Users\roman\Documents\mim-control-io\docs\mim_logo_v6.png"
       inkscape:export-xdpi="451.23871"
       inkscape:export-ydpi="451.23871" />
    <g
       clip-path="url(#mc)"
       style="color:#000000;font-weight:400;font-size:16px;font-family:'Anthropic Sans', '-apple-system', BlinkMacSystemFont, 'Segoe UI', sans-serif;dominant-baseline:auto;text-anchor:start;fill:#000000;stroke:none;stroke-width:0.926699px;stroke-linecap:butt;stroke-linejoin:miter"
       id="g34"
       transform="matrix(0.27741586,0,0,0.29384397,72.105561,18.239962)"
       inkscape:export-filename="C:\Users\roman\Documents\mim-control-io\docs\mim_logo_v6.png"
       inkscape:export-xdpi="451.23871"
       inkscape:export-ydpi="451.23871">
      <rect
         fill="#ffffff"
         stroke="#003233"
         stroke-width="0.465"
         width="178.99661"
         height="59.948425"
         x="24.169886"
         y="22.078924"
         style="color:#000000;font-weight:400;font-size:16px;font-family:'Anthropic Sans', '-apple-system', BlinkMacSystemFont, 'Segoe UI', sans-serif;dominant-baseline:auto;text-anchor:start;opacity:1;fill:#ffffff;fill-opacity:0;stroke:#003233;stroke-width:0.430915px;stroke-linecap:butt;stroke-linejoin:miter"
         id="rect31" />
      <path
         fill="#e6e6e6"
         d="m 126.4,82.1 c 0.1,0 0.1,0 0.2,0.1 -0.2,0 -0.2,0 -0.2,-0.1 z m 19.2,-10.5 c -2.9e-4,-0.9 0,-1.4 0.1,-0.9 0,0.5 0,1.2 4.2e-4,1.7 0,0.5 -0.1,0.1 -0.1,-0.8 z M 122,72.8 c 0,-0.2 0,-0.3 0.1,-0.2 0,0.1 0,0.3 0,0.4 0,0.1 -0.1,0.1 -0.1,-0.2 z m 7.9,-1.2 c 0,-1.1 0.1,-1.4 0.2,-1.4 0.2,0 0.2,0 0,0.1 -0.1,0.1 -0.2,0.6 -0.2,1.4 V 73 Z m 16.1,0.8 c 0,-0.3 0,-0.4 0.1,-0.2 0,0.1 0,0.3 0,0.5 0,0.1 -0.1,0 -0.1,-0.2 z m 0.4,-1 c 0.2,0 0.6,0 0.9,0 0.3,0 0.1,0.1 -0.4,0.1 -0.5,8e-4 -0.7,0 -0.5,-0.1 z m 24,0 c 0.2,0 0.6,0 0.9,0 0.3,0 0.1,0.1 -0.4,0.1 -0.5,8e-4 -0.7,0 -0.5,-0.1 z M 146,70.8 c 0,-0.2 0,-0.3 0.1,-0.2 0,0.1 0,0.2 0,0.3 0,0.1 -0.1,0 -0.1,-0.2 z m 10.3,-0.5 -0.4,-0.1 h 0.4 c 0.2,0 0.4,0 0.5,0.1 0,0.1 0.1,0.1 0,0.1 0,0 -0.2,-0.1 -0.5,-0.1 z m -25.9,-0.1 c 0,0 0.2,0 0.3,0 0.1,0 0.1,0.1 -0.1,0.1 -0.2,0 -0.2,0 -0.2,-0.1 z m 8.5,0 c 0.1,0 0.3,0 0.4,0 0.1,0 0.1,0.1 -0.2,0.1 -0.2,0 -0.3,0 -0.3,-0.1 z m 1.8,0 c 0.3,0 0.6,-0.1 0.6,-0.2 0.1,-0.1 0.1,-0.1 0.1,0 0,0.1 -0.3,0.2 -0.6,0.2 -0.5,0 -0.5,0 -0.1,0 z m 16.7,0 c 0.1,0 0.3,0 0.4,0 0.1,0 0,0.1 -0.2,0.1 -0.2,0 -0.3,0 -0.2,-0.1 z m 6,0 c 0.1,0 0.3,0 0.4,0 0.1,0 0,0.1 -0.2,0.1 -0.2,0 -0.3,0 -0.2,-0.1 z m 7.1,0 c 0.2,0 0.6,0 0.9,0 0.3,0 0.1,0.1 -0.4,0.1 -0.5,8e-4 -0.7,0 -0.5,-0.1 z m -61.1,-0.9 c 0.1,0 0.4,0 0.5,0 0.1,0 0,0.1 -0.2,0.1 -0.3,0 -0.4,0 -0.2,-0.1 z M 121,65.1 c 0,-0.2 0,-0.3 0.1,-0.2 0,0.1 0,0.3 0,0.4 0,0.1 -0.1,0.1 -0.1,-0.2 z m 25.9,-0.3 c 0.001,-0.4 0,-0.5 0.1,-0.3 0,0.2 0,0.5 0,0.7 0,0.2 -0.1,0 -0.1,-0.4 z M 113.5,64 c 0,-0.3 0,-0.4 0.1,-0.3 0,0.1 0,0.4 0,0.5 0,0.2 -0.1,0.1 -0.1,-0.2 z m -0.8,-0.5 c -5.7e-4,-0.5 0,-0.7 0.1,-0.5 0,0.2 0,0.7 0.001,0.9 0,0.3 -0.1,0.1 -0.1,-0.4 z m 17.6,-1.3 c 0,-1.1 0,-1.6 0,-1 0,0.6 0,1.5 0,2.1 0,0.6 0,0.1 0,-1 z m 13.8,0.7 c -8.5e-4,-0.4 0,-0.6 0.1,-0.4 0,0.2 0,0.6 0,0.8 0,0.2 -0.1,0.1 -0.1,-0.4 z m 23.7,0.5 c 0,-0.1 0,-0.2 0.1,-0.2 0,0 0.1,0.2 0,0.3 0,0.1 -0.1,0.1 -0.1,-0.1 z m -58.2,-1 c 0,-0.3 0,-0.4 0.1,-0.2 0,0.1 0,0.3 0,0.5 0,0.1 -0.1,0 -0.1,-0.2 z m 3.1,-0.6 c 0,-0.3 0,-0.4 0.1,-0.3 0,0.1 0,0.4 0,0.5 0,0.2 -0.1,0.1 -0.1,-0.2 z m 0.8,0 c 0,-0.1 0,-0.2 0.1,-0.2 0,0 0.1,0.2 0,0.3 0,0.1 -0.1,0.1 -0.1,-0.1 z m 0,-1.8 c 0,-0.5 0,-0.8 0.1,-0.5 0,0.3 0,0.7 0,1 0,0.3 -0.1,0 -0.1,-0.5 z m 30.6,0.5 c 0,-0.3 0,-0.4 0.1,-0.3 0,0.1 0,0.4 0,0.5 0,0.2 -0.1,0.1 -0.1,-0.2 z m 2.9,-0.9 c 0,-0.3 0,-0.5 0.1,-0.3 0,0.2 0,0.4 0,0.6 0,0.2 -0.1,0 -0.1,-0.3 z m 13.1,-0.2 c 0,-0.3 0,-0.4 0.1,-0.2 0,0.1 0,0.3 0,0.5 0,0.1 -0.1,0 -0.1,-0.2 z m -32.7,0.1 c 0,-0.1 0,-0.2 0.1,-0.2 0,0 0.1,0.2 0,0.3 0,0.1 -0.1,0.1 -0.1,-0.1 z m -10.3,-3.3 c 0,0 0.2,0 0.3,0 0.1,0 0.1,0.1 -0.1,0.1 -0.2,0 -0.2,0 -0.2,-0.1 z m 5.9,0 c 0.1,0 0.3,0 0.4,0 0.1,0 0,0.1 -0.2,0.1 -0.2,0 -0.3,0 -0.2,-0.1 z m 5.9,0 c 0,0 0.2,0 0.3,0 0.1,0 0.1,0.1 -0.1,0.1 -0.2,0 -0.2,0 -0.2,-0.1 z m 39.7,0 c 0,0 0.2,0 0.3,0 0.1,0 0.1,0.1 -0.1,0.1 -0.2,0 -0.2,0 -0.2,-0.1 z m -55.4,-1.3 c -4.3e-4,-0.7 0,-1 0.1,-0.7 0,0.3 0,0.9 7.1e-4,1.3 0,0.4 -0.1,0.1 -0.1,-0.6 z m 8.1,0.8 c -0.2,-0.2 -0.2,-0.2 0.1,-0.1 0.2,0.2 0.3,0.3 0.2,0.3 0,0 -0.1,-0.1 -0.2,-0.2 z m -4.5,-0.2 c 0,0 0.2,0 0.3,0 0.1,0 0.1,0.1 -0.1,0.1 -0.2,0 -0.2,0 -0.2,-0.1 z m 6.1,0 c 0,0 0.2,0 0.3,0 0.1,0 0.1,0.1 -0.1,0.1 -0.2,0 -0.2,0 -0.2,-0.1 z m 45.6,0 c 0,0 0.2,0 0.3,0 0.1,0 0.1,0.1 -0.1,0.1 -0.2,0 -0.2,0 -0.2,-0.1 z M 134.2,55 c 0,-0.2 0,-0.3 0.1,-0.2 0,0.1 0,0.3 0,0.4 0,0.1 -0.1,0.1 -0.1,-0.2 z m 32,-2 c 0,-0.8 0,-1.1 0.1,-0.8 0,0.4 0,1 0,1.5 0,0.4 -0.1,0.1 -0.1,-0.7 z m -53.9,0.1 c 0,-0.4 0,-0.5 0.1,-0.3 0,0.2 0,0.5 0,0.7 0,0.2 -0.1,0 -0.1,-0.4 z m 48.5,-0.3 c 0.3,0 0.7,0 1,0 0.3,0 0.1,0.1 -0.5,0.1 -0.5,5.3e-4 -0.8,0 -0.5,-0.1 z m -51.5,-0.6 c 0,-0.2 0,-0.3 0.1,-0.2 0,0.1 0,0.2 0,0.3 0,0.1 -0.1,0 -0.1,-0.2 z m 25,-1.1 c 0,-0.5 0,-0.7 0.1,-0.4 0,0.2 0,0.6 0,0.9 0,0.2 -0.1,0 -0.1,-0.4 z m -19.6,0.5 c 0,-0.1 0,-0.2 0.1,-0.2 0,0 0.1,0.2 0,0.3 0,0.1 -0.1,0.1 -0.1,-0.1 z m 38.8,-0.7 c 0,-0.1 0.3,-0.2 0.3,-0.1 0,0.1 0,0.1 -0.1,0.1 -0.1,0 -0.2,0 -0.2,0 z m -36.7,-0.8 c 0,0 0.2,0 0.3,0 0.1,0 0.1,0.1 -0.1,0.1 -0.2,0 -0.2,0 -0.2,-0.1 z m 47.4,-9.7 c 0,-3.4 0,-4.8 0,-3.1 0,1.7 0,4.5 0,6.2 0,1.7 0,0.3 0,-3.1 z m 11.1,1.3 c 4e-5,-2.6 0,-3.6 0,-2.3 0,1.3 0,3.4 -8e-5,4.6 0,1.3 0,0.2 0,-2.4 z M 143,40.2 c 7e-5,-2.1 0,-3 0,-1.9 0,1.1 0,2.8 -1.3e-4,3.8 0,1 0,0.2 0,-2 z M 60.4,38.1 c 0,-0.1 0,-0.2 0.1,-0.2 0,0 0.1,0.2 0,0.3 0,0.1 -0.1,0.1 -0.1,-0.1 z m 115,-1.3 c 0,-0.1 0,-0.2 0.1,-0.2 0,0 0.1,0.2 0,0.3 0,0.1 -0.1,0.1 -0.1,-0.1 z m -64.4,-1 c 0,-0.2 0,-0.3 0.1,-0.2 0,0.1 0,0.2 0,0.3 0,0.1 -0.1,0 -0.1,-0.2 z M 143,34 c -4.3e-4,-0.7 0,-1 0.1,-0.7 0,0.3 0,0.9 7.1e-4,1.3 0,0.4 -0.1,0.1 -0.1,-0.6 z m 21.3,-0.4 c 0,-0.4 0,-0.5 0.1,-0.3 0,0.2 0,0.5 0,0.7 0,0.2 -0.1,0 -0.1,-0.4 z m 11.3,0.3 c 0,-0.1 0,-0.2 0.1,-0.2 0,0 0.1,0.2 0,0.3 0,0.1 -0.1,0.1 -0.1,-0.1 z m -11.3,-1.3 c 0,-0.1 0,-0.2 0.1,-0.2 0,0 0.1,0.2 0,0.3 0,0.1 -0.1,0.1 -0.1,-0.1 z m 0,-2.3 c 0,-0.3 0,-0.5 0.1,-0.3 0,0.2 0,0.4 0,0.6 0,0.2 -0.1,0 -0.1,-0.3 z m -55.9,0.1 c 0,-0.1 0,-0.2 0.1,-0.2 0,0 0.1,0.2 0,0.3 0,0.1 -0.1,0.1 -0.1,-0.1 z"
         style="color:#000000;font-weight:400;font-size:16px;font-family:'Anthropic Sans', '-apple-system', BlinkMacSystemFont, 'Segoe UI', sans-serif;dominant-baseline:auto;text-anchor:start;opacity:1;fill:#e6e6e6;stroke:none;stroke-width:0.926699px;stroke-linecap:butt;stroke-linejoin:miter"
         id="path31" />
      <path
         fill="#7a7a7a"
         d="m 36.2,82.9 c 0.5,0 1.3,0 1.8,0 0.5,0 0.1,0 -0.9,0 -1,0 -1.4,0 -0.9,0 z m 7.1,0 c 0.2,0 0.6,0 0.8,0 0.2,0 0,0.1 -0.4,0.1 -0.4,0 -0.6,0 -0.4,-0.1 z m 17,0 c 0,-0.1 0.2,-0.1 0.4,-0.1 0.3,0 0.5,0.1 0.5,0.1 0,0.1 -0.8,0.1 -0.9,-0.1 z m 6.1,0 c 0.2,0 0.6,0 0.8,0 0.2,0 0,0.1 -0.4,0.1 -0.4,0 -0.6,0 -0.4,-0.1 z m 20.9,-6.6e-4 c 0.3,0 0.7,0 1,0 0.3,0 0.1,0.1 -0.5,0.1 -0.5,5.3e-4 -0.8,0 -0.5,-0.1 z m 6.6,0 c 0.1,0 0.4,0 0.5,0 0.1,0 0,0.1 -0.2,0.1 -0.3,0 -0.4,0 -0.2,-0.1 z M 60.3,74.6 c -1.7e-5,-4.4 0,-6.3 0,-4.1 0,2.2 0,5.8 3.3e-5,8.1 0,2.2 0,0.4 0,-4 z M 83.7,81 c 0,-0.1 0,-0.2 0.1,-0.2 0,0 0.1,0.2 0,0.3 0,0.1 -0.1,0.1 -0.1,-0.1 z M 33.5,79.4 c 0,-0.3 0,-0.5 0.1,-0.3 0,0.2 0,0.4 0,0.6 0,0.2 -0.1,0 -0.1,-0.3 z M 109.4,74 c 0.1,0 0.3,0 0.4,0 0.1,0 0,0.1 -0.2,0.1 -0.2,0 -0.3,0 -0.2,-0.1 z m 67.6,0 c 0.2,0 0.5,0 0.7,0 0.2,0 0,0.1 -0.4,0.1 -0.4,0 -0.5,0 -0.3,-0.1 z M 33.5,73.3 c 0,-0.4 0,-0.5 0.1,-0.3 0,0.2 0,0.5 0,0.7 0,0.2 -0.1,0 -0.1,-0.4 z m 106.3,0.3 c 0,0 0.2,0 0.3,0 0.1,0 0.1,0.1 -0.1,0.1 -0.2,0 -0.2,0 -0.2,-0.1 z m 4.3,0 c 0,-0.1 0,-0.1 0.2,-0.1 0.3,0.1 0.4,0.2 0.1,0.2 -0.1,0 -0.2,-0.1 -0.3,-0.1 z m 18.9,0 c 0.2,0 0.5,0 0.6,0 0.2,0 0,0.1 -0.3,0.1 -0.4,0 -0.5,0 -0.3,-0.1 z m 7.1,0 c 0.3,0 0.9,0 1.1,9.3e-4 0.3,0 0,0.1 -0.6,0.1 -0.6,-5.3e-4 -0.9,0 -0.5,-0.1 z m -17.3,-1 c 0,-0.6 0,-0.8 0.1,-0.5 0,0.3 0,0.8 0,1.1 0,0.3 -0.1,0 -0.1,-0.6 z m -38.1,0.3 c 10e-4,-0.4 0,-0.5 0.1,-0.3 0,0.2 0,0.5 0,0.7 0,0.2 -0.1,0 -0.1,-0.4 z m -5.4,-1.2 c -2.9e-4,-0.9 0,-1.4 0.1,-0.9 0,0.5 0,1.2 4.3e-4,1.7 0,0.5 -0.1,0.1 -0.1,-0.8 z m 58.7,1.4 c 0.1,0 0.3,0 0.4,0 0.1,0 0,0.1 -0.2,0.1 -0.2,0 -0.3,0 -0.2,-0.1 z m -8.2,-0.6 c 0,-0.1 0,-0.2 0.1,-0.2 0,0 0.1,0.2 0,0.3 0,0.1 -0.1,0.1 -0.1,-0.1 z m 6.3,-1.3 c 0,-0.7 0,-1 0.1,-0.6 0,0.3 0,0.9 0,1.3 0,0.3 -0.1,0.1 -0.1,-0.6 z m -13.9,0 c 0,-0.6 0,-0.9 0.1,-0.6 0,0.3 0,0.8 0,1.1 0,0.3 -0.1,0.1 -0.1,-0.6 z m 11,0.3 c 0,-0.5 0,-0.7 0.1,-0.4 0,0.2 0,0.6 0,0.9 0,0.2 -0.1,0 -0.1,-0.4 z m -39.6,-0.1 c -8.5e-4,-0.4 0,-0.6 0.1,-0.4 0,0.2 0,0.6 0,0.8 0,0.2 -0.1,0.1 -0.1,-0.4 z m -9,-0.5 c 5.7e-4,-0.6 0,-0.8 0.1,-0.5 0,0.3 0,0.8 0,1.1 0,0.3 -0.1,0 -0.1,-0.6 z m 45.1,0.2 c 0,-0.4 0,-0.6 0.1,-0.4 0,0.2 0,0.5 0,0.7 0,0.2 -0.1,0 -0.1,-0.4 z M 139.6,71 c 0,-0.4 0,-0.6 0.1,-0.4 0,0.2 0,0.5 0,0.7 0,0.2 -0.1,0 -0.1,-0.4 z M 33.5,69.1 c 0,-0.3 0,-0.5 0.1,-0.3 0,0.2 0,0.4 0,0.6 0,0.2 -0.1,0 -0.1,-0.3 z m 26.8,-3.3 c 0,-0.3 0,-0.5 0.1,-0.3 0,0.2 0,0.4 0,0.6 0,0.2 -0.1,0 -0.1,-0.3 z m 52.3,-0.2 c 0.1,0 0.4,0 0.5,0 0.1,0 0,0.1 -0.2,0.1 -0.3,0 -0.4,0 -0.2,-0.1 z m 1.8,0 c 0,-0.1 0.2,-0.1 0.4,-0.1 0.3,0 0.5,0.1 0.5,0.1 0,0.1 -0.8,0.1 -0.9,-0.1 z m 4.9,0.1 c 0,0 0.2,-0.1 0.4,-0.1 0.2,0 0.3,0 0.3,0.1 -0.1,0.1 -0.6,0.2 -0.6,0.1 z m 1.9,0 c 0.1,0 0.4,0 0.5,0 0.1,0 0,0.1 -0.2,0.1 -0.3,0 -0.4,0 -0.2,-0.1 z m 8.6,0 c 0.2,0 0.5,0 0.7,0 0.2,0 0,0.1 -0.4,0.1 -0.4,0 -0.5,0 -0.3,-0.1 z m 4.2,0 c 0.1,0 0.3,0 0.4,0 0.1,0 0.1,0.1 -0.2,0.1 -0.2,0 -0.3,0 -0.3,-0.1 z M 133.8,64 c 2.8e-4,-0.9 0,-1.2 0.1,-0.8 0,0.5 0,1.2 -5.7e-4,1.6 0,0.4 -0.1,0 -0.1,-0.8 z m -3.2,0.8 c 0.1,0 0.4,0 0.6,0 0.2,0 0.1,0.1 -0.2,0.1 -0.3,0 -0.5,0 -0.3,-0.1 z m 18.8,0 c 0.1,0 0.3,0 0.4,0 0.1,0 0.1,0.1 -0.2,0.1 -0.2,0 -0.3,0 -0.3,-0.1 z M 60.3,60.1 c -1.4e-4,-1.3 0,-1.9 0,-1.2 0,0.6 0,1.7 2.9e-4,2.4 0,0.7 0,0.2 0,-1.2 z m 61.5,1.3 c 0,-0.1 0,-0.2 0.1,-0.2 0,0 0.1,0.2 0,0.3 0,0.1 -0.1,0.1 -0.1,-0.1 z m 11.9,-0.1 c 0,-0.1 0,-0.2 0.1,-0.2 0,0 0.1,0.2 0,0.3 0,0.1 -0.1,0.1 -0.1,-0.1 z m 6.7,-2.4 c 0.1,0 0.4,0 0.6,0 0.2,0 0.1,0.1 -0.2,0.1 -0.3,0 -0.5,0 -0.3,-0.1 z M 60.3,54.6 c 2.9e-4,-1 0,-1.4 0,-0.9 0,0.5 0,1.4 -4.3e-4,1.9 0,0.5 0,0.1 0,-1 z m 100.2,0 c 0,-0.3 0,-0.4 0.1,-0.3 0,0.1 0,0.4 0,0.5 0,0.2 -0.1,0.1 -0.1,-0.2 z m -4,-0.7 c 0,-0.1 0,-0.2 0.1,-0.2 0,0 0.1,0.2 0,0.3 0,0.1 -0.1,0.1 -0.1,-0.1 z m -37.1,-0.4 c 0,-0.1 0,-0.2 0.1,-0.2 0,0 0.1,0.2 0,0.3 0,0.1 -0.1,0.1 -0.1,-0.1 z m 50.6,-2 c 0,-1 0,-1.4 0,-0.9 0,0.5 0,1.4 0,1.9 0,0.5 0,0.1 0,-1 z m -34.9,0.6 c 0.4,0 1.1,0 1.5,0 0.4,0 0.1,0 -0.7,0 -0.8,0 -1.2,0 -0.7,0 z m 13.1,-1.2 c 0,-0.4 0,-0.5 0.1,-0.3 0,0.2 0,0.5 0,0.7 0,0.2 -0.1,0 -0.1,-0.4 z m -27.1,-6 c 0,-0.8 0,-1.1 0.1,-0.7 0,0.4 0,1 0,1.4 0,0.4 -0.1,0.1 -0.1,-0.7 z m -37.3,0.7 c 0,-0.2 0,-0.3 0.1,-0.2 0,0.1 0,0.2 0,0.3 0,0.1 -0.1,0 -0.1,-0.2 z m 55.8,-1.4 c 0.3,0 0.7,0 0.9,0 0.3,0 0,0.1 -0.5,0.1 -0.5,0 -0.7,0 -0.5,-0.1 z m 7.2,0 c 0.5,0 1.4,0 1.9,0 0.5,0 0.1,0 -1,0 -1.1,0 -1.5,0 -1,0 z M 121,40.6 c 1.5e-4,-1.2 0,-1.6 0,-1 0,0.6 0,1.6 -2.8e-4,2.1 0,0.6 0,0.1 0,-1.1 z m 0,-3.7 c 0,-0.2 0,-0.3 0.1,-0.2 0,0.1 0,0.3 0,0.4 0,0.1 -0.1,0.1 -0.1,-0.2 z m 29,-6 c 0,-0.6 0,-0.9 0.1,-0.6 0,0.3 0,0.8 0,1.1 0,0.3 -0.1,0.1 -0.1,-0.6 z M 34.4,29.6 c 0.1,0 0.3,0 0.4,0 0.1,0 0,0.1 -0.2,0.1 -0.2,0 -0.3,0 -0.2,-0.1 z m 88.8,0 c 0.1,0 0.3,0 0.4,0 0.1,0 0,0.1 -0.2,0.1 -0.2,0 -0.3,0 -0.2,-0.1 z m 17.8,0 c 0.2,0 0.5,0 0.7,0 0.2,0 0,0.1 -0.4,0.1 -0.4,0 -0.5,0 -0.3,-0.1 z m 23.3,0 c 0.1,0 0.3,0 0.4,0 0.1,0 0,0.1 -0.2,0.1 -0.2,0 -0.3,0 -0.2,-0.1 z"
         style="color:#000000;font-weight:400;font-size:16px;font-family:'Anthropic Sans', '-apple-system', BlinkMacSystemFont, 'Segoe UI', sans-serif;dominant-baseline:auto;text-anchor:start;opacity:1;fill:#7a7a7a;stroke:none;stroke-width:0.926699px;stroke-linecap:butt;stroke-linejoin:miter"
         id="path32" />
      <path
         fill="#003233"
         d="M 24.116245,21.691312 105.8,21.7 h 100.6 v 10.7 l -1.0632,49.817563 C 175.84933,82.334227 109.63024,101.26049 51.70075,75.864922 34.394097,65.48882 28.644806,63.944011 24.003958,32.926127 Z M 44.6,63.2 V 43.4 l 3.6,4.5 c 2,2.5 4.7,5.9 6,7.6 1.3,1.7 2.5,3.2 2.7,3.3 0.3,0.3 0.3,0.1 0.3,-7.4 0,-7.6 0,-7.7 -0.3,-7.9 -0.2,-0.1 -0.3,-0.3 -0.2,-0.4 -1.141412,-1.088073 -2.403661,-2.545791 -3.5,-3.8 -2.789989,-3.238138 -5.77844,-6.32127 -8.4,-9.7 v -0.1 c -0.1,0.1 -1.3,0.2 -5.6,0.2 h -5.6 v 26.6 c 0,14.7 0,26.7 0.1,26.7 0.1,0 2.6,0.1 5.6,0.1 h 5.5 z m 23.4,2 c 0,-14.4 -0.1,-17.9 -0.2,-18.1 -0.4,-0.7 -0.6,-0.7 -3.3,-0.8 -2.9,0 -3.4,0.1 -3.8,0.8 -0.2,0.4 -0.3,1.3 -0.3,18.2 V 83 h 3.9 3.9 z M 94.9,56.3 V 29.6 h -5.5 -5.5 l -1.7,1.7 c -0.9,1 -2.8,3.2 -4.3,4.9 -1.5,1.7 -3.7,4.1 -4.7,5.3 l -2,2.2 v 7.6 c 0,4.2 0,7.6 0.1,7.6 0.1,0 2.7,-3.3 8.5,-10.7 0.7,-1 2,-2.5 2.7,-3.4 l 1.3,-1.7 V 63 82.9 l 5.6,3e-6 5.6,10e-7 z m -27.7,-14 c 0.6,-0.4 0.7,-1 0.8,-3.2 0,-1.7 0,-2.1 -0.3,-2.5 -0.4,-0.7 -0.8,-0.8 -3.5,-0.9 -3.6,0 -3.7,0.1 -3.7,3.7 0,2.2 0.1,2.3 0.4,2.6 0.5,0.5 1,0.6 3.6,0.6 2,0 2.4,-0.1 2.7,-0.3 z"
         style="color:#000000;font-weight:400;font-size:16px;font-family:'Anthropic Sans', '-apple-system', BlinkMacSystemFont, 'Segoe UI', sans-serif;dominant-baseline:auto;text-anchor:start;opacity:1;fill:#003233;stroke:none;stroke-width:0.926699px;stroke-linecap:butt;stroke-linejoin:miter"
         id="path33"
         sodipodi:nodetypes="ccccccccccsscscccccscsssccccccscccccccccsccssccccccccscccssss" />
      <text
         font-family="monospace"
         font-size="36"
         font-weight="700"
         x="103.81363"
         y="50.374809"
         fill="#003233"
         letter-spacing="13.5"
         style="font-style:normal;font-variant:normal;font-weight:bold;font-stretch:normal;font-size:30.2797px;font-family:'Calisto MT';-inkscape-font-specification:'Calisto MT, Bold';font-variant-ligatures:normal;font-variant-caps:normal;font-variant-numeric:normal;font-variant-east-asian:normal;letter-spacing:11.3549;dominant-baseline:auto;text-anchor:start;fill:#ffffff;fill-opacity:1;stroke:none;stroke-width:1.20145px"
         id="text1"
         transform="scale(0.99244238,1.0076152)">MIM</text>
      <text
         font-family="monospace"
         font-size="11"
         font-weight="700"
         x="99.236755"
         y="64.922577"
         fill="#ffffff"
         letter-spacing="1.80787"
         style="font-style:normal;font-variant:normal;font-weight:bold;font-stretch:normal;font-size:11.9466px;font-family:Calibri;-inkscape-font-specification:'Calibri, Bold';font-variant-ligatures:normal;font-variant-caps:normal;font-variant-numeric:normal;font-variant-east-asian:normal;dominant-baseline:auto;text-anchor:start;fill:#ffffff;stroke:none;stroke-width:0.778078px"
         id="text33"
         transform="scale(1.0389384,0.96252097)">MOUSE INPUT</text>
      <text
         font-family="monospace"
         font-size="17"
         font-weight="700"
         x="104.52904"
         y="76.551544"
         fill="#ffffff"
         letter-spacing="2.59185"
         style="font-style:normal;font-variant:normal;font-weight:bold;font-stretch:normal;font-size:18.2475px;font-family:Calibri;-inkscape-font-specification:'Calibri, Bold';font-variant-ligatures:normal;font-variant-caps:normal;font-variant-numeric:normal;font-variant-east-asian:normal;dominant-baseline:auto;text-anchor:start;fill:#ffffff;stroke:none;stroke-width:1.21448px"
         id="text34"
         transform="scale(0.98248493,1.0178273)">MODIFIER</text>
    </g>
  </g>
</svg>
